<?xml version="1.0" encoding="utf-8"?>
<!-- Generator: Adobe Illustrator 21.0.0, SVG Export Plug-In . SVG Version: 6.00 Build 0)  -->
<svg version="1.1" id="Calque_1" xmlns="http://www.w3.org/2000/svg" xmlns:xlink="http://www.w3.org/1999/xlink" x="0px" y="0px"
	 viewBox="0 0 595.3 841.9" style="enable-background:new 0 0 595.3 841.9;" xml:space="preserve">
<style type="text/css">
	.st0{fill:#010101;}
</style>
<g id="logo-group">
	<g id="title">
		<path id="path20151" class="st0" d="M108.5,430c-3.5-4-8.6-6.6-15.4-8c4.7-1.5,8.6-4.2,11.5-8c2.8-3.6,4.3-8.1,4.3-13.6
			c0-7.7-3-13.6-8.6-17.8c-5.7-4.2-13.6-6.3-23.9-6.3H37v5.9h39.1c8.2,0,14.6,1.6,19,4.9c4.5,3.2,6.7,7.8,6.7,13.9
			c0,6.2-2.3,10.9-6.7,14.2c-4.5,3.2-10.8,4.7-19,4.7H37v5.9h42.1c9,0,16.1,1.6,20.8,4.7c4.7,3.2,7.2,8.1,7.2,14.7
			c0,6.7-2.4,11.6-7.2,14.8c-4.7,3.2-11.6,4.7-20.8,4.7H37v5.9h42.1c11.5,0,20.1-2.2,26-6.5c5.8-4.3,8.8-10.4,8.8-18.5
			C113.9,439.5,112,434.2,108.5,430L108.5,430z"/>
		<path id="path20153" class="st0" d="M149.4,370.7v100.1h6.7V370.7H149.4z"/>
		<path id="path20155" class="st0" d="M197.9,400.4v70.4h6.7v-70.4H197.9z M197.3,381.7c1.1,1.1,2.3,1.5,3.9,1.5
			c1.5,0,2.8-0.5,3.9-1.6c1.1-1.1,1.6-2.3,1.6-3.9c0-1.5-0.5-2.7-1.6-3.8c-1.1-1.1-2.4-1.6-3.9-1.6c-1.6,0-2.8,0.5-3.9,1.6
			c-1.1,1.1-1.6,2.4-1.6,3.9C195.7,379.4,196.2,380.7,197.3,381.7z"/>
		<path id="path20157" class="st0" d="M301.6,407.5c-5.1-5.1-12.1-7.7-20.9-7.7c-6.6,0-12.3,1.5-17.1,4.2
			c-4.9,2.8-8.4,6.7-10.8,11.6v-15.2h-6.5v70.4h6.7v-37.5c0-8.4,2.3-15,7.2-20c4.7-4.9,11.2-7.4,19.6-7.4c7.2,0,12.7,2.2,16.7,6.2
			c4,4.2,6.1,10.3,6.1,18.1v40.6h6.7v-41.2C309.3,420.1,306.7,412.6,301.6,407.5L301.6,407.5z"/>
		<path id="path20159" class="st0" d="M392.2,462.8c-3.9,1.6-8.2,2.4-12.7,2.4c-7.3,0-13.4-1.9-18.5-5.7c-5.1-3.8-8.6-8.9-10.3-15.4
			l59.5-11.6c-0.4-6.2-1.9-11.7-4.9-16.7s-6.9-8.9-11.7-11.7c-4.9-2.8-10.4-4.3-16.5-4.3c-6.6,0-12.5,1.6-17.7,4.6
			c-5.3,3.1-9.3,7.3-12.3,12.7s-4.3,11.6-4.3,18.5c0,7,1.5,13.1,4.6,18.5s7.4,9.7,13,12.7c5.5,3.1,11.7,4.6,18.9,4.6
			c5.4,0,10.4-0.9,15.1-2.8c4.5-1.9,8.4-4.7,11.5-8.6l-3.9-4.5C399.3,458.8,396.1,461.2,392.2,462.8L392.2,462.8z M362.9,409.5
			c4.2-2.4,8.9-3.8,14.3-3.8c4.6,0,8.9,1.1,12.7,3.1s6.7,4.9,9.2,8.2c2.3,3.5,3.8,7.4,4.5,11.6l-53.7,10.5c-0.3-1.8-0.3-3.1-0.3-4.2
			c0-5.5,1.1-10.7,3.5-15.1C355.3,415.5,358.6,412,362.9,409.5L362.9,409.5z"/>
		<path id="path20161" class="st0" d="M446,468.8c5.1,1.8,10.5,2.6,16.2,2.6c8.8,0,15.7-1.8,20.5-5.3c4.9-3.5,7.3-8.1,7.3-14
			c0-4.3-1.2-7.8-3.5-10.4c-2.4-2.4-5.3-4.3-8.6-5.4c-3.4-1.1-7.8-2.2-13.2-3.2c-5-0.9-8.9-1.9-11.6-2.7c-2.7-0.8-5-2.2-6.9-3.9
			c-1.9-1.8-2.8-4.2-2.8-7.4c0-3.9,1.6-7.2,5-9.6c3.2-2.4,8.2-3.6,14.8-3.6c3.8,0,7.6,0.5,11.3,1.6c3.6,1.1,6.9,2.7,9.9,4.7l3.1-5.4
			c-2.8-2-6.5-3.6-10.8-5c-4.5-1.2-8.9-1.9-13.4-1.9c-8.6,0-15.2,1.9-19.8,5.5c-4.6,3.6-6.9,8.2-6.9,13.8c0,4.6,1.2,8.2,3.6,10.8
			c2.4,2.7,5.3,4.6,8.8,5.7c3.4,1.2,7.8,2.3,13.5,3.2c4.7,0.9,8.5,1.8,11.2,2.6c2.7,0.8,4.9,2.2,6.7,3.8c1.9,1.8,2.8,4,2.8,7
			c0,4.2-1.8,7.4-5.1,9.7c-3.4,2.4-8.6,3.5-15.7,3.5c-5,0-9.7-0.8-14.3-2.4s-8.2-3.6-11.1-6.1l-3.1,5.4
			C436.8,465,440.9,467.1,446,468.8L446,468.8z"/>
		<path id="path20163" class="st0" d="M557,466.3l-2.8-4.7c-3,2.7-6.6,3.9-10.9,3.9c-4.3,0-7.7-1.1-9.9-3.5
			c-2.2-2.4-3.2-5.9-3.2-10.5v-45.3h22.4v-5.8h-22.4V385h-6.7v15.4h-13v5.8h13v46c0,6.1,1.6,10.8,5,14.2c3.2,3.4,8,5,14.2,5
			c2.7,0,5.4-0.4,8-1.2C553.1,469.3,555.2,468,557,466.3L557,466.3z"/>
	</g>
	<g id="tagline">
	</g>
</g>
</svg>
